<?xml version="1.0" encoding="utf-8"?>
<!-- Generator: Adobe Illustrator 16.0.0, SVG Export Plug-In . SVG Version: 6.00 Build 0)  -->
<!DOCTYPE svg PUBLIC "-//W3C//DTD SVG 1.1//EN" "http://www.w3.org/Graphics/SVG/1.1/DTD/svg11.dtd">
<svg version="1.1" xmlns="http://www.w3.org/2000/svg" xmlns:xlink="http://www.w3.org/1999/xlink" x="0px" y="0px"
	 width="224.761px" height="194px" viewBox="0 0 224.761 194" enable-background="new 0 0 224.761 194" xml:space="preserve">
<g id="Background">
</g>
<g id="Guides">
</g>
<g id="Foreground">
	<g>
		<g>
			<g>
				<path fill-rule="evenodd" clip-rule="evenodd" fill="#FFFFFF" d="M70.106,89.228l6.027-7.053c0,0,0.979-0.947,1.899-0.132
					c3.457,2.86,15.461,11.618,32.831,11.618c17.4,0,29.438-8.818,32.854-11.657c0.792-0.646,1.646-0.124,1.897,0.168
					c0.217,0.252,5.324,6.215,5.324,6.215s0.161,0.21,0.724,0.874c-0.582-0.541-1.411-0.256-1.792,0.062
					c-3.892,3.253-18.189,13.873-39.008,13.873c-20.958,0-35.051-10.57-38.981-13.886C70.972,88.512,70.106,89.228,70.106,89.228z"
					/>
				
					<path fill-rule="evenodd" clip-rule="evenodd" fill="none" stroke="#000000" stroke-width="1.1992" stroke-miterlimit="3.8637" d="
					M70.106,89.228l6.027-7.053c0,0,0.979-0.947,1.899-0.132c3.457,2.86,15.461,11.618,32.831,11.618
					c17.4,0,29.438-8.818,32.854-11.657c0.792-0.646,1.646-0.124,1.897,0.168c0.217,0.252,5.324,6.215,5.324,6.215
					s0.161,0.21,0.724,0.874c-0.582-0.541-1.411-0.256-1.792,0.062c-3.892,3.253-18.189,13.873-39.008,13.873
					c-20.958,0-35.051-10.57-38.981-13.886C70.972,88.512,70.106,89.228,70.106,89.228z"/>
			</g>
			<g>
				<path fill-rule="evenodd" clip-rule="evenodd" fill="#FEEE00" d="M76.691,7.38h68.308c0,0,0,54.813,0,63.123
					c0,5.198-2.957,8-3.989,8.814c-2.351,1.854-12.85,10.476-30.147,10.476c-16.265,0-26.194-7.596-30.133-10.598
					c-1.767-1.346-4.039-4.295-4.039-8.692C76.691,63.764,76.691,7.38,76.691,7.38z"/>
				
					<path fill-rule="evenodd" clip-rule="evenodd" fill="none" stroke="#000000" stroke-width="2.4146" stroke-miterlimit="3.8637" d="
					M76.691,7.38h68.308c0,0,0,54.813,0,63.123c0,5.198-2.957,8-3.989,8.814c-2.351,1.854-12.85,10.476-30.147,10.476
					c-16.265,0-26.194-7.596-30.133-10.598c-1.767-1.346-4.039-4.295-4.039-8.692C76.691,63.764,76.691,7.38,76.691,7.38z"/>
			</g>
			<g>
				<path fill-rule="evenodd" clip-rule="evenodd" fill="none" stroke="#DFEEFA" stroke-width="0" stroke-miterlimit="3.8637" d="
					M110.863,41.549"/>
			</g>
			<g>
				<g>
					<g>
						<path fill-rule="evenodd" clip-rule="evenodd" d="M79.391,90.688c-0.04,0.063-0.058,0.144-0.053,0.241s0.03,0.194,0.078,0.29
							l0.882-0.109l1.282-2.051l-0.048-0.396l0.916-0.155l0.28,0.902l-0.38,0.095l-1.448,2.318c-0.022,0.034-0.03,0.087-0.024,0.157
							c0.006,0.07,0.028,0.138,0.065,0.202l0.202-0.023l0.046,0.201l-1.122,0.198c-0.104-0.202-0.151-0.398-0.141-0.59
							s0.077-0.386,0.2-0.583l0.02-0.032l-1.637,0.22c-0.09-0.212-0.125-0.438-0.103-0.677c0.021-0.24,0.095-0.459,0.219-0.659
							l1.359-2.174l-0.038-0.196l-0.253,0.024l-0.041-0.208l1.192-0.176l0.287,0.906l-0.378,0.097L79.391,90.688z"/>
					</g>
					<g>
						<path fill-rule="evenodd" clip-rule="evenodd" d="M83.418,90.54l-1.125,2.116l0.068,0.403l-0.927,0.268l-0.316-0.929
							l0.379-0.133l1.176-2.211c0.044-0.083,0.068-0.16,0.073-0.232c0.005-0.072-0.009-0.145-0.041-0.218l-0.196,0.039l-0.056-0.205
							l1.056-0.324c0.13,0.197,0.199,0.388,0.206,0.573s-0.046,0.384-0.16,0.597l-0.018,0.033c0.161-0.021,0.353-0.059,0.577-0.112
							c0.224-0.053,0.528-0.134,0.913-0.242l0.241,0.864l0.5-0.14l0.047,0.19c-0.139,0.068-0.263,0.133-0.372,0.194
							c-0.108,0.061-0.197,0.116-0.266,0.165l-1.19,2.239c-0.016,0.063-0.018,0.125-0.006,0.186
							c0.012,0.062,0.037,0.116,0.075,0.165l0.198-0.033l0.06,0.197l-1.107,0.28c-0.127-0.21-0.188-0.412-0.181-0.604
							c0.006-0.192,0.087-0.437,0.244-0.731l1.076-2.023l-0.164-0.513L83.418,90.54z"/>
					</g>
					<g>
						<path fill-rule="evenodd" clip-rule="evenodd" d="M86.95,90.462l0.667-0.865l0.519,0.253L87.025,90.5L86.95,90.462z
							 M85.562,94.208c-0.015,0.066-0.016,0.127-0.003,0.184c0.012,0.057,0.041,0.111,0.084,0.164l0.197-0.04l0.067,0.195
							L84.79,95.02c-0.143-0.192-0.216-0.387-0.22-0.583c-0.003-0.196,0.071-0.45,0.223-0.761l1.106-2.268l-0.106-0.417l0.93-0.252
							l0.345,0.932l-0.336,0.144L85.562,94.208z"/>
					</g>
					<g>
						<path fill-rule="evenodd" clip-rule="evenodd" d="M87.966,92.793l-0.832,1.96c0.139,0.147,0.27,0.283,0.395,0.408
							s0.245,0.242,0.362,0.353l1.001-2.359c0.028-0.066,0.036-0.151,0.023-0.253s-0.043-0.221-0.093-0.354L87.966,92.793z
							 M87.326,92.03c-0.055-0.201-0.082-0.384-0.081-0.551c0.001-0.167,0.029-0.315,0.084-0.445c0.09-0.214,0.247-0.38,0.467-0.5
							c0.221-0.119,0.51-0.194,0.865-0.224l0.011,0.143c-0.165,0.06-0.294,0.124-0.388,0.193c-0.094,0.069-0.16,0.149-0.198,0.238
							c-0.04,0.096-0.035,0.263,0.016,0.503c0.006,0.026,0.01,0.049,0.013,0.067c0.057,0.242,0.081,0.44,0.072,0.593
							c-0.009,0.153-0.043,0.309-0.104,0.467l1.559-0.468c0.108,0.244,0.178,0.469,0.208,0.676c0.03,0.207,0.019,0.373-0.034,0.497
							l-1.146,2.701c-0.291-0.032-0.564-0.035-0.821-0.008c-0.257,0.026-0.499,0.082-0.726,0.165
							c-0.148-0.27-0.326-0.521-0.533-0.755c-0.207-0.234-0.438-0.44-0.692-0.62c0.124-0.033,0.225-0.092,0.304-0.178
							c0.079-0.085,0.161-0.228,0.246-0.428L87.326,92.03z"/>
					</g>
					<g>
						<path fill-rule="evenodd" clip-rule="evenodd" d="M91.839,92.895l0.68,1.653c-0.292,0.087-0.592,0.184-0.899,0.289
							c-0.307,0.105-0.648,0.229-1.025,0.374l-0.336,0.924l0.561,0.565l0.704-0.185l0.074,0.197
							c-0.24,0.063-0.491,0.136-0.753,0.219s-0.539,0.179-0.828,0.287c-0.129-0.194-0.28-0.372-0.451-0.534
							c-0.171-0.163-0.363-0.308-0.577-0.435c0.118-0.038,0.214-0.101,0.291-0.19c0.076-0.089,0.146-0.222,0.211-0.399l0.894-2.455
							c0.196-0.008,0.413-0.038,0.649-0.088C91.268,93.064,91.537,92.991,91.839,92.895z M90.643,94.941l1.047-0.371l-0.49-1.16
							L90.643,94.941z"/>
					</g>
					<g>
						<path fill-rule="evenodd" clip-rule="evenodd" d="M93.417,93.488c0.149,0.161,0.248,0.313,0.295,0.459
							c0.047,0.146,0.048,0.302,0.004,0.469l1.098-0.474l0.362,0.908l-0.785,0.363l-0.323-0.724l-0.417,0.157l-0.775,2.386
							l0.341,0.517l0.314-0.13l0.083,0.185c-0.191,0.09-0.373,0.177-0.547,0.262s-0.348,0.174-0.519,0.267
							c-0.101-0.221-0.227-0.423-0.378-0.607c-0.151-0.184-0.331-0.354-0.538-0.511c0.116-0.042,0.21-0.108,0.285-0.199
							s0.14-0.227,0.198-0.406l0.605-1.862c0.029-0.089,0.04-0.17,0.032-0.242c-0.008-0.072-0.034-0.141-0.078-0.208l-0.187,0.073
							l-0.09-0.193L93.417,93.488z"/>
					</g>
					<g>
						<path fill-rule="evenodd" clip-rule="evenodd" d="M96.355,98.344l0.305-1.225l-0.434-0.424l-1.309,1.105
							c0.113-0.014,0.222-0.017,0.326-0.011s0.204,0.021,0.301,0.046c0.143,0.036,0.282,0.096,0.416,0.181
							C96.095,98.103,96.227,98.211,96.355,98.344z M95.616,96.125l0.422,0.411l1.119-0.983c-0.105-0.007-0.2-0.016-0.285-0.027
							c-0.085-0.011-0.156-0.024-0.214-0.039c-0.14-0.035-0.274-0.088-0.402-0.159s-0.252-0.162-0.374-0.273L95.616,96.125z
							 M93.927,98.396l1.494-1.329l-0.734-0.717l0.374-1.499c0.229-0.04,0.452-0.102,0.668-0.185
							c0.216-0.084,0.422-0.19,0.619-0.319c0.188,0.179,0.374,0.327,0.557,0.442c0.184,0.115,0.356,0.193,0.517,0.233
							c0.146,0.037,0.271,0.036,0.372-0.002s0.165-0.107,0.19-0.208c0.013-0.052-0.007-0.133-0.06-0.245
							c-0.053-0.112-0.073-0.192-0.061-0.241c0.015-0.061,0.051-0.108,0.108-0.141s0.115-0.042,0.176-0.026
							c0.094,0.023,0.162,0.077,0.203,0.16c0.041,0.083,0.047,0.181,0.019,0.293c-0.023,0.092-0.067,0.182-0.133,0.271
							s-0.164,0.188-0.295,0.297l-1.082,0.954l0.689,0.74l-0.44,1.768c-0.204,0.014-0.414,0.054-0.629,0.121
							c-0.216,0.067-0.438,0.164-0.667,0.29c-0.114-0.138-0.238-0.251-0.372-0.339s-0.276-0.151-0.428-0.189
							c-0.143-0.036-0.291-0.051-0.444-0.045s-0.319,0.031-0.499,0.076L93.927,98.396z"/>
					</g>
					<g>
						<path fill-rule="evenodd" clip-rule="evenodd" d="M99.104,94.678l0.438-1.001l0.565,0.12l-0.921,0.898L99.104,94.678z
							 M98.664,98.647c0.002,0.068,0.016,0.127,0.041,0.179c0.026,0.052,0.066,0.098,0.122,0.139l0.182-0.086l0.112,0.173
							l-1.009,0.569c-0.186-0.152-0.304-0.323-0.355-0.512c-0.051-0.189-0.04-0.454,0.032-0.792l0.524-2.468l-0.204-0.38L98.95,95
							l0.56,0.821l-0.292,0.221L98.664,98.647z"/>
					</g>
					<g>
						<path fill-rule="evenodd" clip-rule="evenodd" d="M100.362,98.866c0.154,0.101,0.306,0.197,0.455,0.291
							c0.149,0.093,0.298,0.182,0.445,0.265l0.465-2.638l-0.624-0.636l-0.284,0.122L100.362,98.866z M100.643,100.145
							c-0.205-0.229-0.434-0.435-0.689-0.616c-0.254-0.181-0.526-0.331-0.814-0.448c0.113-0.06,0.198-0.141,0.256-0.242
							c0.058-0.102,0.105-0.259,0.143-0.472l0.409-2.318c0.154-0.008,0.299-0.028,0.435-0.062c0.136-0.034,0.267-0.079,0.391-0.137
							l-0.944-0.957l0.175-0.99l2.39,2.381c0.062-0.079,0.127-0.138,0.197-0.178s0.141-0.063,0.216-0.07l0.027,0.034
							c-0.039,0.038-0.07,0.086-0.095,0.144c-0.024,0.058-0.046,0.138-0.063,0.24l-0.563,3.189c-0.29,0.034-0.557,0.093-0.802,0.177
							C101.068,99.904,100.845,100.012,100.643,100.145z"/>
					</g>
					<g>
						<path fill-rule="evenodd" clip-rule="evenodd" d="M104.482,99.56l-1.318,0.928l-0.088-0.011
							c-0.206-0.259-0.346-0.495-0.421-0.706s-0.098-0.434-0.07-0.667c0.036-0.293,0.146-0.576,0.33-0.849s0.441-0.534,0.771-0.784
							l-0.283-1.286c0.015,0.005,0.035,0.01,0.06,0.014c0.025,0.005,0.061,0.01,0.107,0.016c0.193,0.024,0.369,0.011,0.528-0.037
							s0.295-0.13,0.407-0.246l1.229,0.629l0.281-0.169l0.054,0.063c-0.127,0.162-0.222,0.297-0.284,0.406
							c-0.063,0.109-0.104,0.208-0.124,0.298l-0.309,2.517c0.004,0.067,0.022,0.127,0.054,0.18s0.076,0.097,0.135,0.133l0.183-0.101
							l0.118,0.162l-0.929,0.653c-0.179-0.139-0.304-0.297-0.374-0.475c-0.07-0.177-0.09-0.388-0.061-0.63L104.482,99.56z
							 M104.517,99.274l0.127-1.032l-0.832-0.6c-0.104,0.132-0.187,0.271-0.248,0.415c-0.061,0.145-0.1,0.296-0.12,0.455
							c-0.03,0.246-0.016,0.477,0.042,0.693c0.059,0.216,0.163,0.413,0.312,0.593L104.517,99.274z M103.852,97.472l0.814,0.588
							l0.128-1.046l-1.188-0.629L103.852,97.472z"/>
					</g>
					<g>
						<path fill-rule="evenodd" clip-rule="evenodd" d="M107.042,99.659c0.164,0.084,0.325,0.164,0.483,0.241
							s0.315,0.15,0.471,0.217l0.187-2.672l-0.687-0.567l-0.27,0.151L107.042,99.659z M107.455,100.901
							c-0.228-0.207-0.478-0.387-0.75-0.541c-0.272-0.154-0.558-0.274-0.856-0.36c0.106-0.071,0.183-0.16,0.229-0.267
							s0.078-0.269,0.093-0.484l0.165-2.349c0.152-0.024,0.294-0.06,0.426-0.107s0.257-0.106,0.375-0.177l-1.039-0.853l0.07-1.002
							l2.626,2.118c0.053-0.084,0.112-0.151,0.177-0.198s0.134-0.078,0.208-0.092l0.031,0.031c-0.035,0.042-0.061,0.092-0.079,0.153
							c-0.019,0.06-0.031,0.142-0.039,0.245l-0.226,3.231c-0.285,0.064-0.545,0.151-0.779,0.26S107.642,100.748,107.455,100.901z"/>
					</g>
					<g>
						<path fill-rule="evenodd" clip-rule="evenodd" d="M111.916,99.728c0.172,0.066,0.34,0.129,0.506,0.189
							c0.165,0.06,0.329,0.116,0.491,0.167l-0.094-2.677l-0.742-0.492l-0.253,0.178L111.916,99.728z M112.457,100.92
							c-0.248-0.182-0.516-0.335-0.802-0.459c-0.287-0.125-0.583-0.214-0.889-0.269c0.098-0.082,0.165-0.178,0.2-0.29
							c0.035-0.111,0.049-0.275,0.042-0.491l-0.083-2.353c0.149-0.04,0.287-0.09,0.413-0.151c0.126-0.061,0.244-0.133,0.354-0.215
							l-1.123-0.74l-0.035-1.005l2.833,1.832c0.044-0.089,0.096-0.161,0.155-0.215c0.06-0.054,0.125-0.092,0.197-0.113l0.034,0.027
							c-0.03,0.045-0.051,0.099-0.063,0.16c-0.012,0.062-0.016,0.145-0.013,0.248l0.113,3.237c-0.277,0.094-0.526,0.208-0.748,0.34
							C112.823,100.596,112.627,100.749,112.457,100.92z"/>
					</g>
					<g>
						<path fill-rule="evenodd" clip-rule="evenodd" d="M115.382,96.092l1.315,1.21c-0.228,0.203-0.459,0.417-0.693,0.642
							c-0.234,0.225-0.491,0.482-0.771,0.771l0.086,0.98l0.747,0.275l0.56-0.464l0.15,0.147c-0.191,0.158-0.388,0.33-0.59,0.517
							c-0.203,0.186-0.412,0.389-0.629,0.609c-0.2-0.121-0.411-0.219-0.635-0.293s-0.459-0.125-0.707-0.15
							c0.091-0.083,0.152-0.182,0.183-0.295s0.039-0.263,0.022-0.451l-0.228-2.603c0.174-0.09,0.358-0.208,0.551-0.354
							C114.936,96.488,115.149,96.308,115.382,96.092z M115.163,98.453l0.792-0.778l-0.934-0.845L115.163,98.453z"/>
					</g>
					<g>
						<path fill-rule="evenodd" clip-rule="evenodd" d="M118.575,94.637c0.115-0.177,0.241-0.317,0.378-0.42
							c0.136-0.103,0.289-0.172,0.458-0.208l0.024,0.035c-0.123,0.124-0.21,0.264-0.26,0.42s-0.061,0.32-0.034,0.494l0.642,4.055
							l0.687,0.334l0.201-0.237l0.154,0.128c-0.126,0.166-0.248,0.327-0.364,0.481c-0.117,0.155-0.231,0.313-0.342,0.474
							c-0.177-0.134-0.383-0.247-0.617-0.338c-0.234-0.091-0.512-0.166-0.833-0.223c0.084-0.089,0.139-0.192,0.163-0.307
							c0.025-0.115,0.022-0.266-0.007-0.452l-0.606-3.827c-0.014-0.09-0.058-0.184-0.13-0.282c-0.073-0.098-0.17-0.193-0.293-0.285
							l0.021-0.046c0.112,0.007,0.223,0.029,0.332,0.064s0.221,0.086,0.337,0.154L118.575,94.637z"/>
					</g>
					<g>
						<path fill-rule="evenodd" clip-rule="evenodd" d="M122.577,99.765c-0.276-0.136-0.565-0.241-0.869-0.313
							c-0.304-0.072-0.611-0.109-0.923-0.11c0.083-0.098,0.131-0.204,0.147-0.32s0.001-0.28-0.044-0.492l-0.488-2.294
							c0.246-0.123,0.46-0.27,0.642-0.439c0.181-0.17,0.34-0.373,0.476-0.606c0.32,0.144,0.611,0.249,0.874,0.314
							c0.263,0.066,0.492,0.091,0.688,0.075l0.674,3.169c-0.256,0.14-0.482,0.295-0.677,0.464
							C122.881,99.382,122.715,99.566,122.577,99.765z M121.825,98.672c0.198,0.042,0.384,0.077,0.557,0.108
							s0.339,0.058,0.499,0.082l-0.551-2.594c-0.159-0.021-0.325-0.05-0.5-0.086c-0.175-0.037-0.362-0.08-0.562-0.131
							L121.825,98.672z"/>
					</g>
					<g>
						<path fill-rule="evenodd" clip-rule="evenodd" d="M126.262,98.053l-0.327-1.219l-0.584-0.16l-0.608,1.601
							c0.093-0.067,0.186-0.123,0.279-0.167c0.094-0.044,0.189-0.08,0.286-0.105c0.143-0.039,0.293-0.053,0.452-0.043
							C125.917,97.968,126.085,98,126.262,98.053z M124.541,96.471l0.568,0.155l0.502-1.402c-0.095,0.045-0.183,0.083-0.262,0.114
							c-0.079,0.031-0.148,0.055-0.206,0.07c-0.14,0.038-0.282,0.056-0.429,0.057c-0.146,0-0.299-0.019-0.459-0.058L124.541,96.471z
							 M124.163,99.276l0.663-1.887l-0.99-0.271l-0.4-1.492c0.181-0.146,0.346-0.308,0.494-0.486s0.277-0.371,0.387-0.579
							c0.252,0.066,0.486,0.104,0.702,0.117c0.216,0.012,0.405-0.004,0.565-0.047c0.146-0.039,0.254-0.1,0.324-0.182
							c0.071-0.082,0.093-0.173,0.066-0.273c-0.014-0.051-0.071-0.113-0.171-0.186c-0.101-0.072-0.158-0.132-0.17-0.181
							c-0.017-0.061-0.008-0.119,0.026-0.175c0.034-0.057,0.081-0.093,0.142-0.109c0.094-0.025,0.179-0.011,0.255,0.042
							c0.076,0.053,0.128,0.135,0.159,0.248c0.024,0.091,0.029,0.191,0.015,0.301c-0.014,0.109-0.052,0.244-0.113,0.403
							l-0.484,1.358l0.961,0.313l0.472,1.76c-0.172,0.111-0.336,0.248-0.492,0.411s-0.304,0.355-0.442,0.577
							c-0.167-0.065-0.33-0.104-0.489-0.116s-0.314,0.002-0.466,0.042c-0.143,0.038-0.28,0.097-0.411,0.175
							c-0.131,0.079-0.265,0.182-0.399,0.309L124.163,99.276z"/>
					</g>
					<g>
						<path fill-rule="evenodd" clip-rule="evenodd" d="M130.476,96.411l-0.752,1.425l-0.084,0.031
							c-0.301-0.138-0.532-0.284-0.695-0.438s-0.285-0.342-0.365-0.563c-0.101-0.277-0.131-0.579-0.092-0.905
							c0.04-0.327,0.15-0.676,0.332-1.049l-0.836-1.018c0.016-0.002,0.036-0.007,0.06-0.014c0.024-0.007,0.059-0.019,0.103-0.035
							c0.183-0.067,0.334-0.158,0.454-0.273c0.12-0.116,0.203-0.25,0.25-0.404l1.38,0.003l0.173-0.279l0.077,0.032
							c-0.04,0.202-0.063,0.365-0.068,0.491c-0.006,0.126,0.002,0.233,0.024,0.322l0.868,2.383c0.035,0.058,0.078,0.103,0.129,0.136
							c0.052,0.033,0.112,0.052,0.181,0.057l0.117-0.173l0.178,0.091l-0.53,1.003c-0.223-0.042-0.406-0.127-0.549-0.253
							c-0.143-0.126-0.256-0.304-0.34-0.534L130.476,96.411z M130.377,96.141l-0.355-0.977l-1.014-0.157
							c-0.033,0.166-0.043,0.326-0.032,0.482c0.012,0.156,0.045,0.31,0.1,0.459c0.084,0.233,0.202,0.432,0.353,0.598
							c0.15,0.166,0.333,0.295,0.546,0.387L130.377,96.141z M128.967,94.837l0.992,0.154l-0.361-0.99l-1.344-0.021L128.967,94.837z"
							/>
					</g>
					<g>
						<path fill-rule="evenodd" clip-rule="evenodd" d="M132.031,93.342l0.936,2.206l0.356,0.201l-0.375,0.889l-0.921-0.339
							l0.135-0.379l-0.979-2.305c-0.037-0.086-0.082-0.154-0.134-0.203c-0.053-0.049-0.119-0.084-0.196-0.106l-0.093,0.177
							l-0.194-0.086l0.413-1.025c0.235,0.023,0.427,0.09,0.575,0.201c0.148,0.111,0.269,0.278,0.364,0.5l0.015,0.035
							c0.084-0.138,0.176-0.311,0.276-0.519s0.228-0.495,0.386-0.862l0.823,0.357l0.206-0.477l0.178,0.083
							c-0.034,0.151-0.062,0.288-0.083,0.411c-0.021,0.123-0.034,0.226-0.039,0.31l0.991,2.334c0.039,0.051,0.085,0.092,0.141,0.122
							c0.055,0.029,0.113,0.044,0.175,0.045l0.099-0.175l0.191,0.078l-0.479,1.037c-0.243-0.034-0.438-0.113-0.583-0.24
							c-0.146-0.126-0.284-0.343-0.414-0.65l-0.896-2.109L132.4,92.66L132.031,93.342z"/>
					</g>
					<g>
						<path fill-rule="evenodd" clip-rule="evenodd" d="M136.114,93.949c0.184-0.009,0.364-0.02,0.539-0.033
							c0.176-0.012,0.348-0.028,0.516-0.047l-1.174-2.408l-0.878-0.148l-0.158,0.266L136.114,93.949z M137.093,94.818
							c-0.301-0.065-0.607-0.097-0.919-0.093c-0.313,0.003-0.62,0.042-0.922,0.116c0.056-0.115,0.078-0.23,0.065-0.346
							c-0.013-0.116-0.066-0.271-0.161-0.466l-1.032-2.116c0.12-0.097,0.225-0.199,0.315-0.306c0.091-0.107,0.169-0.221,0.236-0.341
							l-1.327-0.219l-0.44-0.903l3.333,0.521c0.004-0.1,0.022-0.187,0.054-0.26c0.032-0.073,0.077-0.134,0.134-0.183l0.042,0.011
							c-0.009,0.053-0.006,0.11,0.008,0.172c0.014,0.061,0.044,0.138,0.089,0.231l1.42,2.911c-0.214,0.198-0.396,0.403-0.544,0.615
							C137.295,94.374,137.178,94.592,137.093,94.818z"/>
					</g>
					<g>
						<path fill-rule="evenodd" clip-rule="evenodd" d="M137.783,89.141l1.694,0.571c-0.126,0.278-0.25,0.567-0.372,0.868
							c-0.122,0.301-0.252,0.641-0.391,1.019l0.477,0.861l0.794-0.053l0.322-0.652l0.197,0.074c-0.11,0.222-0.219,0.459-0.329,0.712
							c-0.11,0.252-0.219,0.523-0.327,0.813c-0.231-0.029-0.464-0.033-0.699-0.01s-0.471,0.073-0.707,0.15
							c0.049-0.113,0.064-0.228,0.047-0.344c-0.018-0.116-0.072-0.256-0.163-0.421l-1.267-2.285c0.123-0.154,0.243-0.336,0.36-0.548
							C137.536,89.684,137.658,89.432,137.783,89.141z M138.543,91.387l0.407-1.033l-1.197-0.392L138.543,91.387z"/>
					</g>
					<g>
						<path fill-rule="evenodd" clip-rule="evenodd" d="M142.516,90.818l-0.669-1.071l-0.606,0.018l-0.114,1.709
							c0.069-0.091,0.142-0.172,0.218-0.242c0.077-0.07,0.157-0.132,0.243-0.185c0.125-0.078,0.265-0.136,0.419-0.173
							S142.331,90.818,142.516,90.818z M140.407,89.808l0.589-0.018l0.07-1.488c-0.078,0.071-0.15,0.133-0.217,0.186
							c-0.067,0.053-0.125,0.095-0.176,0.127c-0.123,0.076-0.253,0.136-0.394,0.179c-0.14,0.043-0.292,0.069-0.456,0.079
							L140.407,89.808z M140.866,92.601l0.082-1.998l-1.026,0.03l-0.819-1.31c0.13-0.192,0.241-0.396,0.331-0.609
							s0.157-0.436,0.2-0.667c0.26-0.011,0.495-0.042,0.706-0.094c0.21-0.052,0.386-0.122,0.527-0.21
							c0.128-0.08,0.213-0.169,0.257-0.269c0.043-0.099,0.038-0.193-0.017-0.281c-0.028-0.045-0.101-0.087-0.218-0.127
							c-0.117-0.04-0.189-0.081-0.216-0.124c-0.033-0.053-0.042-0.112-0.026-0.175s0.05-0.112,0.104-0.145
							c0.083-0.052,0.168-0.063,0.256-0.035s0.163,0.092,0.224,0.19c0.05,0.08,0.084,0.174,0.103,0.283
							c0.018,0.109,0.021,0.249,0.009,0.419l-0.066,1.44l1.011,0.018l0.965,1.545c-0.132,0.156-0.249,0.335-0.35,0.537
							s-0.187,0.429-0.255,0.681c-0.179-0.014-0.346-0.003-0.501,0.032s-0.3,0.094-0.434,0.177
							c-0.125,0.078-0.239,0.174-0.341,0.288c-0.103,0.114-0.2,0.251-0.292,0.412L140.866,92.601z"/>
					</g>
				</g>
			</g>
			<g>
				<path fill-rule="evenodd" clip-rule="evenodd" d="M75.09,100.402l1.821-7.389c0,0-3.551-2.358-4.917-3.602
					c-0.576-0.524-1.338-0.674-1.918-0.143c-0.271,0.249-0.473,0.729-0.426,1.185c0.094,2.526,1.472,5.725,2.658,7.165
					C74.238,99.961,75.09,100.402,75.09,100.402z"/>
				
					<path fill-rule="evenodd" clip-rule="evenodd" fill="none" stroke="#000000" stroke-width="0.7264" stroke-miterlimit="3.8637" d="
					M75.09,100.402l1.821-7.389c0,0-3.551-2.358-4.917-3.602c-0.576-0.524-1.338-0.674-1.918-0.143
					c-0.271,0.249-0.473,0.729-0.426,1.185c0.094,2.526,1.472,5.725,2.658,7.165C74.238,99.961,75.09,100.402,75.09,100.402z"/>
			</g>
			<g>
				<path fill-rule="evenodd" clip-rule="evenodd" d="M146.673,100.415l-1.822-7.389c0,0,3.551-2.357,4.918-3.602
					c0.575-0.524,1.338-0.674,1.918-0.143c0.271,0.249,0.473,0.729,0.426,1.185c-0.095,2.526-1.473,5.725-2.659,7.165
					C147.526,99.974,146.673,100.415,146.673,100.415z"/>
				
					<path fill-rule="evenodd" clip-rule="evenodd" fill="none" stroke="#000000" stroke-width="0.7264" stroke-miterlimit="3.8637" d="
					M146.673,100.415l-1.822-7.389c0,0,3.551-2.357,4.918-3.602c0.575-0.524,1.338-0.674,1.918-0.143
					c0.271,0.249,0.473,0.729,0.426,1.185c-0.095,2.526-1.473,5.725-2.659,7.165C147.526,99.974,146.673,100.415,146.673,100.415z"
					/>
			</g>
			<g>
				<path fill-rule="evenodd" clip-rule="evenodd" d="M108.959,9.873c0,0,0.915-0.593,1.904-0.352c1.648,0.401,3.7,1.786,3.852,5.61
					c0.215,5.434-0.674,5.542-0.674,6.551c0,0,0.562-3.44,4.313-1.666c0,0-3.167,0.219-1.234,4.558
					c2.191,4.92,1.234,7.45,1.122,8.654c0,0,1.724-1.964,3.303-0.438c-3.751,4.425,0.081,9.363,0.332,16.511
					c0.245,6.955-2.51,12.492-2.601,13.111c0,0,1.025-1.472,2.742-0.657c0,0-1.28,0.719-0.897,4.095
					c0.3,2.649-0.148,3.471-1.294,5.465c0,0,1.197-1.042,2.39,0.039c0,0-1.027,0.723-1.386,2.353
					c-2.249,10.233-6.931,8.262-8.083,9.467c-0.667,0.698,0.587,3.525,0.587,3.525s-0.727,0.843-2.47,0.843
					c-1.23,0-1.741-0.418-2.276-0.859c0.489-1.371,0.974-2.929,0.41-3.467c-1.478-1.413-6.106-1.061-7.357-8.248
					c-0.786-4.886-0.112-8.326-2.18-8.982c0,0,1.118-1.961,3.415-0.571c0,0-1.483-3.112-2.044-7.646
					c-0.645-5.212,2.405-9.444-0.336-11.656c0,0,0.449-1.337,2.605-0.461c0,0-1.82-2.432,0.137-10.21
					c1.35-5.368,0-11.195-1.146-10.757c0,0,2.493-0.68,3.303,1.204c0,0-1.295-4.158,0.449-7.974
					c0.922-2.017,2.269-2.455,3.864-4.886C111.114,10.879,108.959,9.873,108.959,9.873z"/>
			</g>
		</g>
		<g>
			<g>
				<path fill-rule="evenodd" clip-rule="evenodd" d="M17.938,187.426h4.8V153.49l-8.4,1.2v0.96c2.832,0.144,3.6,1.008,3.6,4.416
					v7.92h-0.096c-0.912-1.584-2.4-3.648-6.336-3.648c-6.336,0-8.784,6.096-8.784,12.288c0,6.048,2.352,11.328,8.592,11.328
					c3.456,0,5.424-2.064,6.624-3.264V187.426z M17.938,176.723c0,2.544-0.432,8.64-5.04,8.64c-4.512,0-4.896-5.712-4.896-9.408
					c0-3.408,0.432-8.976,4.848-8.976c4.56,0,5.088,5.04,5.088,7.728V176.723z"/>
			</g>
			<g>
				<path fill-rule="evenodd" clip-rule="evenodd" d="M44.798,184.499c-0.816,0.336-2.496,0.864-4.512,0.864
					c-6.768,0-8.736-6.912-8.736-11.76h13.68c0-3.264-0.672-9.264-8.88-9.264c-6.432,0-10.08,3.36-10.08,11.04
					c0,8.064,4.416,12.576,11.76,12.576c3.312,0,5.856-0.96,6.768-1.296V184.499z M31.55,171.683c0-1.872,1.008-5.664,4.608-5.664
					c4.176,0,4.272,4.56,4.272,5.664H31.55z"/>
			</g>
			<g>
				<path fill-rule="evenodd" clip-rule="evenodd" d="M74.598,187.955c7.104,0,10.368-3.888,10.368-11.76
					c0-7.008-3.408-11.856-10.368-11.856c-7.008,0-10.368,3.744-10.368,11.856C64.229,182.962,66.87,187.955,74.598,187.955z
					 M69.51,176.194c0-4.272,0.336-10.176,5.088-10.176c4.656,0,5.088,5.712,5.088,10.176c0,4.848-0.384,10.128-5.088,10.128
					C69.846,186.322,69.51,180.227,69.51,176.194z"/>
			</g>
			<g>
				<path fill-rule="evenodd" clip-rule="evenodd" d="M100.889,165.154c-0.816-0.192-2.928-0.816-5.376-0.816
					c-5.664,0-8.016,3.024-8.016,6.528c0,6.672,10.512,6.96,10.512,11.712c0,1.68-1.104,3.264-4.128,3.264
					c-2.688,0-4.944-1.584-6.336-2.544v3.792c1.104,0.288,3.216,0.864,6.144,0.864c4.752,0,8.64-1.92,8.64-6.672
					c0-7.44-10.512-7.536-10.512-12.144c0-2.064,1.824-2.64,3.36-2.64c2.688,0,4.992,1.824,5.712,2.304V165.154z"/>
			</g>
			<g>
				<path fill-rule="evenodd" clip-rule="evenodd" d="M107.767,187.426h2.79l3.375-9.45h11.475l3.375,9.45h4.68l-10.98-30.6h-8.46
					v0.99c1.8,0.315,3.465,0.36,3.465,2.16c0,0.315-0.495,1.89-0.765,2.7L107.767,187.426z M119.512,162.586l5.13,13.23h-9.945
					L119.512,162.586z"/>
			</g>
			<g>
				<path fill-rule="evenodd" clip-rule="evenodd" d="M136.813,187.426h4.8v-11.808c0-3.456,2.736-7.968,5.904-7.968
					c3.216,0,3.216,3.408,3.216,7.2v12.576h4.8v-16.224c0-3.744-1.44-6.864-5.808-6.864c-4.752,0-7.296,4.512-8.016,6.24h-0.096
					v-6.24l-8.64,1.584v0.96c3.024,0.096,3.84,0.912,3.84,4.32V187.426z"/>
			</g>
			<g>
				<path fill-rule="evenodd" clip-rule="evenodd" d="M175.282,187.426h4.8V153.49l-8.4,1.2v0.96c2.832,0.144,3.6,1.008,3.6,4.416
					v7.92h-0.096c-0.912-1.584-2.4-3.648-6.336-3.648c-6.336,0-8.784,6.096-8.784,12.288c0,6.048,2.352,11.328,8.592,11.328
					c3.456,0,5.424-2.064,6.624-3.264V187.426z M175.282,176.723c0,2.544-0.432,8.64-5.04,8.64c-4.512,0-4.896-5.712-4.896-9.408
					c0-3.408,0.432-8.976,4.848-8.976c4.56,0,5.088,5.04,5.088,7.728V176.723z"/>
			</g>
			<g>
				<path fill-rule="evenodd" clip-rule="evenodd" d="M202.833,184.499c-0.816,0.336-2.496,0.864-4.512,0.864
					c-6.768,0-8.736-6.912-8.736-11.76h13.68c0-3.264-0.672-9.264-8.88-9.264c-6.432,0-10.08,3.36-10.08,11.04
					c0,8.064,4.416,12.576,11.76,12.576c3.312,0,5.856-0.96,6.768-1.296V184.499z M189.585,171.683c0-1.872,1.008-5.664,4.608-5.664
					c4.176,0,4.272,4.56,4.272,5.664H189.585z"/>
			</g>
			<g>
				<path fill-rule="evenodd" clip-rule="evenodd" d="M218.742,165.154c-0.816-0.192-2.928-0.816-5.376-0.816
					c-5.664,0-8.016,3.024-8.016,6.528c0,6.672,10.512,6.96,10.512,11.712c0,1.68-1.104,3.264-4.128,3.264
					c-2.688,0-4.944-1.584-6.336-2.544v3.792c1.104,0.288,3.216,0.864,6.144,0.864c4.752,0,8.64-1.92,8.64-6.672
					c0-7.44-10.512-7.536-10.512-12.144c0-2.064,1.824-2.64,3.36-2.64c2.688,0,4.992,1.824,5.712,2.304V165.154z"/>
			</g>
			<g>
				<path fill-rule="evenodd" clip-rule="evenodd" d="M54.723,187.338h4.8v-33.936l-8.448,1.2v0.96
					c2.832,0.144,3.648,1.008,3.648,4.416V187.338z"/>
			</g>
		</g>
		<g>
			<g>
				<path fill-rule="evenodd" clip-rule="evenodd" d="M26.01,120.826h-3.24v19.35c0,4.59,0,9.63-6.885,9.63
					c-6.435,0-6.435-5.535-6.435-10.71v-18.765L0,121.366v1.035c4.365,0.585,4.5,0.63,4.5,4.455v14.535
					c0,6.75,2.88,10.53,10.8,10.53c10.17,0,10.71-6.165,10.71-12.285V120.826z"/>
			</g>
			<g>
				<path fill-rule="evenodd" clip-rule="evenodd" d="M32.06,151.426h4.8v-11.808c0-3.456,2.736-7.968,5.904-7.968
					c3.216,0,3.216,3.408,3.216,7.2v12.576h4.8v-16.224c0-3.744-1.44-6.864-5.808-6.864c-4.752,0-7.296,4.512-8.016,6.24h-0.096
					v-6.24l-8.64,1.584v0.96c3.024,0.096,3.84,0.912,3.84,4.32V151.426z"/>
			</g>
			<g>
				<path fill-rule="evenodd" clip-rule="evenodd" d="M56.44,151.426h4.8v-23.088l-8.496,1.584v0.96
					c2.928,0.096,3.696,0.912,3.696,4.32V151.426z M58.889,124.499c1.68,0,3.12-1.344,3.12-3.024c0-1.728-1.44-3.024-3.072-3.024
					c-1.68,0-3.024,1.344-3.024,3.024C55.913,123.154,57.256,124.499,58.889,124.499z"/>
			</g>
			<g>
				<path fill-rule="evenodd" clip-rule="evenodd" d="M73.945,151.426h3.504l8.592-22.56h-2.736l-6.528,17.088l-6.72-17.088h-8.016
					v1.008c3.264,0.288,3.792,1.104,4.992,4.32L73.945,151.426z"/>
			</g>
			<g>
				<path fill-rule="evenodd" clip-rule="evenodd" d="M105.212,148.499c-0.816,0.336-2.496,0.864-4.512,0.864
					c-6.768,0-8.736-6.912-8.736-11.76h13.68c0-3.264-0.672-9.264-8.88-9.264c-6.432,0-10.08,3.36-10.08,11.04
					c0,8.064,4.416,12.576,11.76,12.576c3.312,0,5.856-0.96,6.768-1.296V148.499z M91.964,135.683c0-1.872,1.008-5.664,4.608-5.664
					c4.176,0,4.272,4.56,4.272,5.664H91.964z"/>
			</g>
			<g>
				<path fill-rule="evenodd" clip-rule="evenodd" d="M110.655,151.426h4.8v-11.568c0-3.408,1.392-7.248,6.24-7.248
					c0.816,0,1.68,0.336,2.448,0.576v-4.608c-0.816-0.144-1.728-0.24-2.592-0.24c-3.84,0-5.328,4.176-6,6.432h-0.096v-6.432
					l-8.592,1.584v0.96c3.024,0.096,3.792,0.912,3.792,4.32V151.426z"/>
			</g>
			<g>
				<path fill-rule="evenodd" clip-rule="evenodd" d="M139.071,129.154c-0.816-0.192-2.928-0.816-5.376-0.816
					c-5.664,0-8.016,3.024-8.016,6.528c0,6.672,10.512,6.96,10.512,11.712c0,1.68-1.104,3.264-4.128,3.264
					c-2.688,0-4.944-1.584-6.336-2.544v3.792c1.104,0.288,3.216,0.864,6.144,0.864c4.752,0,8.64-1.92,8.64-6.672
					c0-7.44-10.512-7.536-10.512-12.144c0-2.064,1.824-2.64,3.36-2.64c2.688,0,4.992,1.824,5.712,2.304V129.154z"/>
			</g>
			<g>
				<path fill-rule="evenodd" clip-rule="evenodd" d="M145.546,151.426h4.8v-23.088l-8.496,1.584v0.96
					c2.928,0.096,3.696,0.912,3.696,4.32V151.426z M147.994,124.499c1.68,0,3.12-1.344,3.12-3.024c0-1.728-1.44-3.024-3.072-3.024
					c-1.68,0-3.024,1.344-3.024,3.024C145.018,123.154,146.362,124.499,147.994,124.499z"/>
			</g>
			<g>
				<path fill-rule="evenodd" clip-rule="evenodd" d="M169.393,151.426h4.8V117.49l-8.4,1.2v0.96c2.832,0.144,3.6,1.008,3.6,4.416
					v7.92h-0.096c-0.912-1.584-2.4-3.648-6.336-3.648c-6.336,0-8.784,6.096-8.784,12.288c0,6.048,2.352,11.328,8.592,11.328
					c3.456,0,5.424-2.064,6.624-3.264V151.426z M169.393,140.723c0,2.544-0.432,8.64-5.04,8.64c-4.512,0-4.896-5.712-4.896-9.408
					c0-3.408,0.432-8.976,4.848-8.976c4.56,0,5.088,5.04,5.088,7.728V140.723z"/>
			</g>
			<g>
				<path fill-rule="evenodd" clip-rule="evenodd" d="M190.801,151.426h4.8V136.69c0-4.8-1.056-8.352-7.872-8.352
					c-6.912,0-8.496,3.408-9.024,6.624h5.712c0-2.16,0.192-4.944,3.36-4.944c3.024,0,3.024,3.36,3.024,6.432v2.448
					c-3.072,0.096-12.624,0.672-12.624,7.488c0,2.88,2.688,5.568,6.432,5.568c3.696,0,5.328-2.352,6.192-3.408V151.426z
					 M190.801,143.458c0,3.312-1.68,5.904-4.464,5.904c-1.776,0-2.88-1.584-2.88-3.792c0-4.608,5.616-4.848,7.344-4.896V143.458z"/>
			</g>
			<g>
				<path fill-rule="evenodd" clip-rule="evenodd" d="M214.236,151.426h4.8V117.49l-8.4,1.2v0.96c2.832,0.144,3.6,1.008,3.6,4.416
					v7.92h-0.096c-0.912-1.584-2.4-3.648-6.336-3.648c-6.336,0-8.784,6.096-8.784,12.288c0,6.048,2.352,11.328,8.592,11.328
					c3.457,0,5.424-2.064,6.625-3.264V151.426z M214.236,140.723c0,2.544-0.432,8.64-5.04,8.64c-4.512,0-4.896-5.712-4.896-9.408
					c0-3.408,0.432-8.976,4.848-8.976c4.56,0,5.088,5.04,5.088,7.728V140.723z"/>
			</g>
		</g>
	</g>
</g>
</svg>
